<?xml version="1.0" encoding="UTF-8"?>
<svg xmlns="http://www.w3.org/2000/svg" xmlns:xlink="http://www.w3.org/1999/xlink" width="63px" height="75px" viewBox="0 0 63 75" version="1.1">
<g id="surface1">
<path style=" stroke:none;fill-rule:nonzero;fill:rgb(0%,0%,0%);fill-opacity:1;" d="M 31.382812 1.492188 C 31.164062 1.8125 31.164062 1.835938 31.570312 3.632812 C 31.738281 4.382812 31.859375 5.425781 31.894531 6.425781 C 31.976562 8.601562 31.808594 9.304688 30.6875 11.644531 C 29.378906 14.390625 29.035156 15.722656 29.355469 16.816406 C 29.710938 18.027344 30.976562 18.753906 32.34375 18.527344 C 32.738281 18.46875 33.726562 18.445312 34.550781 18.492188 C 37.109375 18.621094 37.515625 18.609375 38.78125 18.265625 C 40.160156 17.886719 40.804688 17.578125 40.996094 17.230469 C 41.101562 17.015625 41.078125 16.933594 40.839844 16.683594 C 40.246094 16.101562 39.410156 16.101562 37.503906 16.707031 C 36.585938 16.992188 35.835938 17.078125 35.445312 16.933594 C 35.195312 16.839844 34.953125 16.351562 34.859375 15.757812 C 34.8125 15.496094 34.859375 14.367188 34.96875 13.261719 C 35.371094 8.96875 35.335938 8.257812 34.65625 6.007812 C 34.097656 4.214844 33.046875 2.289062 32.214844 1.5625 C 31.714844 1.125 31.632812 1.109375 31.382812 1.492188 Z M 31.382812 1.492188 "/>
<path style=" stroke:none;fill-rule:nonzero;fill:rgb(0%,0%,0%);fill-opacity:1;" d="M 37.433594 2.171875 C 37.171875 2.429688 37.277344 3.039062 37.71875 3.761719 C 38.78125 5.507812 39.207031 6.699219 39.375 8.386719 C 39.484375 9.503906 39.515625 9.609375 39.886719 9.800781 C 40.246094 9.980469 42.28125 10.46875 42.675781 10.46875 C 42.914062 10.46875 42.914062 10.421875 42.84375 9.601562 C 42.710938 8.339844 42.152344 6.792969 41.414062 5.664062 C 40.648438 4.511719 39.101562 2.824219 38.375 2.359375 C 37.777344 1.992188 37.648438 1.957031 37.433594 2.171875 Z M 37.433594 2.171875 "/>
<path style=" stroke:none;fill-rule:nonzero;fill:rgb(0%,0%,0%);fill-opacity:1;" d="M 36.398438 10.445312 L 35.679688 10.644531 L 37.289062 10.71875 C 38.96875 10.800781 39.566406 10.941406 40.804688 11.574219 C 42.125 12.238281 44.03125 13.976562 44.390625 14.828125 C 45.117188 16.542969 43.128906 17.851562 38.433594 18.742188 L 37.359375 18.945312 L 37.863281 19.382812 C 39.148438 20.535156 41.875 20.859375 43.675781 20.097656 C 44.472656 19.75 45.414062 18.789062 45.820312 17.921875 C 46.296875 16.886719 46.308594 15.589844 45.84375 14.605469 C 44.773438 12.308594 41.007812 10.207031 38.078125 10.242188 C 37.539062 10.253906 36.789062 10.335938 36.398438 10.445312 Z M 36.398438 10.445312 "/>
<path style=" stroke:none;fill-rule:nonzero;fill:rgb(0%,0%,0%);fill-opacity:1;" d="M 42.414062 11.109375 C 43.617188 11.714844 44.152344 12.085938 44.902344 12.832031 C 45.738281 13.664062 46.214844 14.578125 46.378906 15.699219 L 46.511719 16.519531 L 47.117188 16.707031 C 47.75 16.921875 48.214844 17.265625 48.371094 17.660156 C 48.5625 18.109375 48.5 16.71875 48.296875 16.042969 C 47.976562 14.960938 47.40625 14.023438 46.523438 13.140625 C 45.5 12.121094 44.652344 11.609375 43.152344 11.109375 C 41.6875 10.609375 41.421875 10.609375 42.414062 11.109375 Z M 42.414062 11.109375 "/>
<path style=" stroke:none;fill-rule:nonzero;fill:rgb(0%,0%,0%);fill-opacity:1;" d="M 5.601562 14.851562 C 5.242188 14.914062 4.621094 15.019531 4.230469 15.117188 L 3.515625 15.269531 L 4.824219 15.367188 C 6.957031 15.519531 8.769531 16.089844 10.066406 17.015625 C 10.367188 17.230469 11.34375 18.230469 12.234375 19.242188 C 13.140625 20.238281 13.890625 21.011719 13.914062 20.941406 C 13.976562 20.761719 13.234375 18.679688 12.902344 18.074219 C 12.734375 17.777344 12.484375 17.421875 12.355469 17.28125 C 12.222656 17.125 12.140625 16.980469 12.164062 16.945312 C 12.34375 16.765625 16.859375 17.5625 17.90625 17.957031 C 18.214844 18.074219 18.46875 18.148438 18.46875 18.125 C 18.46875 18.109375 18.097656 17.875 17.632812 17.601562 C 15.882812 16.578125 13 15.519531 10.664062 15.042969 C 9.589844 14.820312 6.585938 14.710938 5.601562 14.851562 Z M 5.601562 14.851562 "/>
<path style=" stroke:none;fill-rule:nonzero;fill:rgb(0%,0%,0%);fill-opacity:1;" d="M 28.175781 16.933594 C 27.769531 17.136719 27.4375 17.183594 25.914062 17.21875 L 24.136719 17.265625 L 25.554688 17.828125 C 26.996094 18.382812 27.6875 18.742188 28.757812 19.46875 C 29.535156 19.988281 29.890625 19.964844 30.128906 19.347656 L 30.296875 18.90625 L 29.734375 18.3125 C 29.425781 17.992188 29.082031 17.480469 28.949219 17.183594 C 28.820312 16.886719 28.699219 16.660156 28.6875 16.660156 C 28.664062 16.671875 28.4375 16.792969 28.175781 16.933594 Z M 28.175781 16.933594 "/>
<path style=" stroke:none;fill-rule:nonzero;fill:rgb(0%,0%,0%);fill-opacity:1;" d="M 46.65625 17.21875 C 46.617188 17.253906 46.582031 17.457031 46.582031 17.660156 C 46.582031 18.265625 46.296875 18.800781 45.605469 19.453125 C 44.757812 20.261719 44.378906 20.511719 43.507812 20.796875 C 41.617188 21.4375 39.054688 20.929688 36.15625 19.324219 C 35.515625 18.96875 34.90625 18.671875 34.824219 18.671875 C 34.742188 18.671875 34.5625 18.777344 34.417969 18.921875 C 34.226562 19.109375 34.191406 19.265625 34.242188 19.644531 C 34.3125 20.132812 34.96875 21.523438 35.421875 22.140625 C 35.65625 22.472656 35.679688 22.472656 35.765625 22.234375 C 35.898438 21.867188 36.632812 21.605469 37.277344 21.6875 C 38.410156 21.84375 39.242188 22.773438 39.613281 24.269531 C 39.828125 25.125 39.816406 25.945312 39.554688 27.230469 C 39.304688 28.488281 39.671875 29.878906 40.4375 30.523438 C 40.972656 30.972656 41.925781 31.390625 42.425781 31.390625 C 42.757812 31.390625 43.046875 31.519531 43.578125 31.914062 C 45.035156 32.984375 45.832031 34.445312 46.582031 37.464844 C 47.367188 40.578125 47.40625 40.671875 48.679688 41.910156 C 50.191406 43.382812 50.289062 43.597656 50.703125 46.726562 C 51.074219 49.53125 50.847656 50.257812 49.046875 52.015625 C 47.058594 53.953125 44.832031 56.578125 44.210938 57.710938 C 41.710938 62.25 41.664062 65.996094 44.070312 68.277344 C 45.1875 69.335938 46.570312 70 48.214844 70.261719 C 49.121094 70.40625 50.394531 70.3125 50.71875 70.085938 C 50.90625 69.941406 50.859375 69.859375 50.15625 69.109375 C 49.121094 68.015625 48.5625 67.160156 48.167969 66.03125 C 47.714844 64.710938 47.714844 63.152344 48.179688 61.703125 C 48.570312 60.527344 49.347656 59.160156 50.25 58.078125 C 50.789062 57.421875 51.050781 57.222656 52.027344 56.746094 C 53.101562 56.210938 53.21875 56.175781 54.136719 56.175781 C 55.207031 56.175781 55.578125 56.320312 56.21875 56.972656 C 56.769531 57.53125 57.148438 58.234375 57.617188 59.539062 C 58.007812 60.644531 58.1875 60.976562 58.320312 60.847656 C 58.710938 60.453125 58.804688 48.648438 58.449219 45.296875 C 57.984375 40.886719 57.664062 38.84375 56.996094 35.859375 C 56.257812 32.554688 55.578125 30.75 54.625 29.605469 C 53.898438 28.726562 53.359375 27.679688 52.789062 25.992188 C 52.21875 24.316406 51.921875 23.828125 51.074219 23.199219 C 49.929688 22.367188 49.5 21.679688 48.796875 19.539062 C 48.34375 18.195312 48.070312 17.707031 47.632812 17.46875 C 47.273438 17.28125 46.726562 17.136719 46.65625 17.21875 Z M 46.714844 29.988281 C 47.332031 30.273438 48.917969 31.472656 48.8125 31.578125 C 48.75 31.640625 48.023438 31.257812 47.511719 30.902344 C 46.867188 30.449219 45.210938 30.035156 44.558594 30.152344 C 44.222656 30.226562 44.210938 30.234375 44.378906 30.546875 C 44.460938 30.722656 44.785156 31.140625 45.09375 31.484375 C 45.890625 32.375 46.570312 32.496094 47.488281 31.914062 C 47.820312 31.699219 47.835938 31.699219 47.65625 31.914062 C 47.558594 32.042969 47.238281 32.246094 46.953125 32.375 C 46.5 32.578125 46.367188 32.578125 45.914062 32.460938 C 45.414062 32.316406 45.164062 32.101562 44.054688 30.796875 C 43.78125 30.476562 43.675781 30.425781 43.402344 30.5 L 43.078125 30.570312 L 43.304688 30.320312 C 43.4375 30.175781 43.734375 29.953125 43.960938 29.832031 C 44.546875 29.511719 45.820312 29.582031 46.714844 29.988281 Z M 45.988281 30.617188 C 45.988281 30.710938 45.878906 30.796875 45.75 30.796875 C 45.617188 30.796875 45.511719 30.710938 45.511719 30.617188 C 45.511719 30.523438 45.617188 30.4375 45.75 30.4375 C 45.878906 30.4375 45.988281 30.523438 45.988281 30.617188 Z M 46.164062 31.792969 C 46.296875 31.828125 46.558594 31.78125 46.75 31.6875 C 47.140625 31.472656 47.214844 31.460938 47.117188 31.628906 C 47.082031 31.699219 46.890625 31.828125 46.691406 31.925781 C 46.378906 32.089844 46.308594 32.089844 46 31.9375 C 45.808594 31.828125 45.617188 31.664062 45.582031 31.542969 C 45.511719 31.367188 45.523438 31.355469 45.710938 31.53125 C 45.832031 31.640625 46.035156 31.746094 46.164062 31.792969 Z M 46.164062 31.792969 "/>
<path style=" stroke:none;fill-rule:nonzero;fill:rgb(0%,0%,0%);fill-opacity:1;" d="M 19.5625 17.660156 C 19.226562 17.933594 19.179688 18.050781 19.179688 18.539062 C 19.179688 19.394531 19.453125 20.15625 20.230469 21.40625 C 22.660156 25.375 25.6875 28.015625 28.640625 28.773438 C 29.726562 29.046875 30.320312 29.070312 31.582031 28.882812 C 32.085938 28.796875 32.621094 28.773438 32.796875 28.8125 C 32.964844 28.859375 33.394531 29.167969 33.75 29.488281 C 34.429688 30.105469 35.371094 30.605469 36.109375 30.734375 L 36.539062 30.820312 L 36.480469 30.210938 C 36.445312 29.820312 36.480469 29.546875 36.574219 29.429688 C 36.753906 29.214844 36.765625 29.226562 36.15625 28.917969 C 34.90625 28.289062 34.015625 28.191406 30.4375 28.296875 C 28.773438 28.347656 28.082031 28.191406 26.710938 27.46875 C 25.089844 26.597656 23.648438 25.257812 22.003906 23.078125 C 20.707031 21.355469 20.074219 19.714844 20.359375 18.777344 C 20.574219 18.074219 20.90625 17.910156 22.015625 17.980469 C 23.148438 18.050781 23.992188 18.347656 26.148438 19.382812 C 28.484375 20.5 28.796875 20.773438 31.535156 24.164062 C 32.417969 25.257812 33.296875 25.835938 34.179688 25.898438 C 34.871094 25.945312 34.90625 25.933594 35.359375 25.492188 C 35.800781 25.066406 37.777344 22.273438 37.5625 22.378906 C 35.742188 23.28125 35.882812 23.246094 34.492188 23.246094 C 32.90625 23.246094 32.511719 23.101562 30.914062 21.878906 C 27.796875 19.515625 23.457031 17.578125 20.90625 17.398438 C 19.992188 17.339844 19.929688 17.351562 19.5625 17.660156 Z M 19.5625 17.660156 "/>
<path style=" stroke:none;fill-rule:nonzero;fill:rgb(0%,0%,0%);fill-opacity:1;" d="M 23.257812 19.644531 C 23.757812 20.585938 25.210938 22.046875 26.210938 22.628906 C 26.625 22.867188 26.925781 23.070312 26.867188 23.070312 C 26.507812 23.070312 24.710938 22.558594 24.292969 22.34375 L 23.804688 22.105469 L 24.03125 22.472656 C 24.648438 23.53125 26.292969 24.710938 27.4375 24.921875 L 27.890625 24.992188 L 27.402344 25.410156 C 26.84375 25.886719 26.617188 26.253906 26.769531 26.410156 C 26.960938 26.597656 28.390625 26.5625 29.25 26.351562 C 30.035156 26.148438 30.390625 26.148438 31.617188 26.351562 C 31.976562 26.421875 31.964844 26.410156 31.488281 26.125 C 30.25 25.386719 29.453125 24.484375 29 23.304688 C 28.699219 22.507812 28.304688 22.152344 26.984375 21.5 C 25.757812 20.882812 24.386719 20.011719 23.507812 19.3125 C 23.230469 19.085938 22.980469 18.90625 22.933594 18.90625 C 22.898438 18.90625 23.039062 19.242188 23.257812 19.644531 Z M 23.257812 19.644531 "/>
<path style=" stroke:none;fill-rule:nonzero;fill:rgb(0%,0%,0%);fill-opacity:1;" d="M 5.300781 20.296875 C 5.351562 20.417969 5.527344 20.988281 5.695312 21.582031 C 5.980469 22.582031 6.003906 22.820312 6.003906 25.386719 C 6.003906 27.847656 5.980469 28.226562 5.730469 29.25 C 4.90625 32.601562 4.96875 32.164062 4.957031 35.609375 C 4.957031 38.046875 5.003906 39.1875 5.171875 40.367188 C 5.492188 42.71875 6.136719 46.09375 6.671875 48.234375 C 7.207031 50.363281 7.398438 51.421875 7.671875 53.621094 C 8.089844 56.9375 8.148438 58.078125 8.160156 62.296875 C 8.160156 66.886719 8.089844 67.777344 7.578125 69.8125 C 7.421875 70.417969 7.316406 70.941406 7.339844 70.964844 C 7.351562 70.988281 7.734375 70.261719 8.160156 69.359375 C 9.828125 65.898438 10.949219 62.726562 11.84375 58.910156 C 12.734375 55.105469 12.949219 51.003906 12.523438 46.070312 C 11.855469 38.367188 11.914062 32.589844 12.6875 28.703125 C 13.1875 26.21875 13.773438 24.660156 15.191406 22.058594 C 15.890625 20.75 15.796875 20.796875 14.976562 22.152344 C 14.628906 22.710938 14.023438 23.664062 13.605469 24.269531 C 12.257812 26.253906 11.128906 28.859375 10.6875 30.972656 C 10.519531 31.78125 10.507812 31.734375 10.566406 29.488281 C 10.664062 26.21875 10.351562 22.925781 9.828125 21.703125 C 9.625 21.191406 9.195312 20.570312 9.054688 20.570312 C 9.007812 20.570312 9.078125 21.023438 9.234375 21.582031 C 9.972656 24.234375 10.125 27.585938 9.664062 30.203125 C 9.03125 33.707031 9.054688 39.058594 9.757812 46.703125 C 9.949219 48.839844 9.949219 48.875 9.734375 48.601562 C 9.222656 47.984375 8.398438 46.132812 7.910156 44.523438 C 7.113281 41.921875 6.804688 39.699219 6.707031 36.074219 C 6.648438 33.730469 6.671875 33.148438 6.863281 32.089844 C 7.183594 30.210938 7.160156 26.183594 6.8125 24.53125 C 6.46875 22.949219 5.492188 20.097656 5.289062 20.097656 C 5.253906 20.097656 5.253906 20.191406 5.300781 20.296875 Z M 5.300781 20.296875 "/>
<path style=" stroke:none;fill-rule:nonzero;fill:rgb(0%,0%,0%);fill-opacity:1;" d="M 19.027344 25.015625 C 17.371094 26.882812 15.808594 29.640625 15.140625 31.949219 C 14.460938 34.277344 14.238281 37.035156 14.546875 39.53125 C 14.726562 41.042969 15.285156 43.15625 15.640625 43.703125 C 16.214844 44.574219 16.382812 45.417969 16.367188 47.378906 C 16.359375 49.234375 16.226562 50.21875 15.65625 52.46875 C 15.191406 54.320312 15.011719 55.484375 15.011719 56.828125 C 15.011719 60.289062 16.011719 63.4375 18.144531 66.730469 C 18.46875 67.242188 18.75 67.636719 18.765625 67.625 C 18.789062 67.601562 18.609375 67.03125 18.394531 66.339844 C 17.75 64.378906 17.40625 62.441406 17.3125 60.371094 C 17.238281 58.398438 17.40625 56.140625 17.703125 55.046875 C 18.097656 53.65625 18.515625 52.46875 18.859375 51.777344 C 19.445312 50.613281 20.21875 47.449219 20.539062 44.882812 C 20.859375 42.351562 20.882812 41.007812 20.671875 38.582031 C 20.382812 35.421875 20.5625 32.03125 21.21875 28.3125 C 21.351562 27.574219 21.433594 26.929688 21.398438 26.90625 C 21.3125 26.824219 20.65625 28.941406 20.132812 30.960938 C 19.492188 33.492188 19.289062 34.96875 19.167969 38.164062 C 19.121094 39.699219 19.015625 41.328125 18.953125 41.789062 C 18.882812 42.242188 18.824219 42.730469 18.824219 42.859375 C 18.8125 43.0625 18.789062 43.0625 18.679688 42.800781 C 18.417969 42.160156 17.859375 39.9375 17.609375 38.523438 C 17.261719 36.523438 17.238281 32.542969 17.5625 30.734375 C 17.871094 29 18.597656 26.730469 19.226562 25.457031 C 19.539062 24.851562 19.777344 24.328125 19.753906 24.304688 C 19.730469 24.28125 19.40625 24.601562 19.027344 25.015625 Z M 19.027344 25.015625 "/>
<path style=" stroke:none;fill-rule:nonzero;fill:rgb(0%,0%,0%);fill-opacity:1;" d="M 25.164062 28.738281 C 25.640625 29.355469 26.375 30.523438 26.792969 31.257812 C 27.1875 31.960938 27.519531 33.101562 27.519531 33.695312 C 27.519531 34.300781 27.484375 34.386719 26.925781 35.039062 C 26.601562 35.421875 26.199219 36.015625 26.03125 36.359375 C 25.710938 37.023438 25.375 38.675781 25.375 39.570312 C 25.375 40.414062 23.765625 46.058594 22.753906 48.804688 C 22.136719 50.46875 22.183594 50.230469 22.015625 52.714844 C 21.71875 57.234375 22.457031 62.203125 24.007812 66.160156 C 24.46875 67.363281 25.554688 69.476562 26.1875 70.441406 C 26.769531 71.34375 27.367188 72.09375 27.257812 71.808594 C 27.210938 71.710938 26.972656 71.117188 26.710938 70.5 C 24.816406 65.984375 23.828125 60.667969 24.160156 56.804688 C 24.445312 53.476562 24.921875 51.96875 26.722656 48.617188 C 27.546875 47.09375 28.140625 45.59375 28.484375 44.242188 C 28.820312 42.898438 28.757812 41.957031 28.1875 40.234375 C 27.617188 38.484375 27.617188 37.726562 28.152344 36.226562 C 28.5 35.242188 28.53125 35.003906 28.53125 33.828125 C 28.53125 32.566406 28.523438 32.484375 28.105469 31.628906 C 27.484375 30.332031 26.078125 28.8125 24.972656 28.214844 C 24.648438 28.046875 24.660156 28.074219 25.164062 28.738281 Z M 25.164062 28.738281 "/>
<path style=" stroke:none;fill-rule:nonzero;fill:rgb(0%,0%,0%);fill-opacity:1;" d="M 32.167969 47 C 32.167969 49.566406 32.132812 53.144531 32.09375 54.9375 C 32.046875 56.734375 32.046875 58.160156 32.09375 58.125 C 32.191406 58.042969 32.464844 56.414062 32.691406 54.570312 C 33.097656 51.242188 33.238281 47.035156 33 45.0625 C 32.871094 43.96875 32.476562 42.503906 32.285156 42.386719 C 32.203125 42.335938 32.167969 43.945312 32.167969 47 Z M 32.167969 47 "/>
<path style=" stroke:none;fill-rule:nonzero;fill:rgb(0%,0%,0%);fill-opacity:1;" d="M 28.558594 47.34375 C 27.546875 48.984375 26.972656 50.28125 26.328125 52.429688 C 25.542969 55.023438 25.328125 56.53125 25.316406 59.328125 C 25.316406 62.546875 25.648438 64.164062 26.746094 66.339844 C 27.328125 67.480469 27.570312 67.71875 27.164062 66.730469 C 26.652344 65.507812 26.234375 63.664062 26.066406 61.964844 C 25.746094 58.492188 26.496094 54.488281 28.699219 47.984375 C 28.976562 47.199219 29.164062 46.546875 29.140625 46.523438 C 29.117188 46.5 28.855469 46.867188 28.558594 47.34375 Z M 28.558594 47.34375 "/>
<path style=" stroke:none;fill-rule:nonzero;fill:rgb(0%,0%,0%);fill-opacity:1;" d="M 29.546875 51.597656 C 28.5 53.074219 27.820312 56.59375 28.117188 59.101562 C 28.234375 60.132812 28.773438 62.296875 28.878906 62.15625 C 28.902344 62.144531 28.867188 61.585938 28.808594 60.929688 C 28.675781 59.3125 28.867188 57.078125 29.355469 54.546875 C 29.796875 52.324219 29.960938 51.242188 29.867188 51.242188 C 29.832031 51.242188 29.6875 51.398438 29.546875 51.597656 Z M 29.546875 51.597656 "/>
<path style=" stroke:none;fill-rule:nonzero;fill:rgb(0%,0%,0%);fill-opacity:1;" d="M 40.421875 53.882812 C 39.421875 55 38.410156 57.164062 38.039062 59.015625 C 37.753906 60.382812 37.765625 63.226562 38.054688 64.554688 C 38.46875 66.507812 39.484375 68.695312 40.710938 70.296875 C 41.421875 71.214844 42.542969 72.425781 42.628906 72.34375 C 42.664062 72.308594 42.578125 72.164062 42.449219 72.007812 C 41.984375 71.511719 40.851562 69.667969 40.328125 68.5625 C 39.148438 66.078125 38.78125 64.28125 38.875 61.523438 C 38.957031 59.386719 39.207031 58.113281 40.066406 55.5 C 40.410156 54.464844 40.6875 53.621094 40.671875 53.621094 C 40.671875 53.621094 40.554688 53.738281 40.421875 53.882812 Z M 40.421875 53.882812 "/>
<path style=" stroke:none;fill-rule:nonzero;fill:rgb(0%,0%,0%);fill-opacity:1;" d="M 31.105469 54.179688 C 30.738281 54.988281 30.59375 55.675781 30.535156 57.066406 C 30.429688 59.503906 30.988281 61.84375 32.226562 64.164062 C 32.75 65.164062 33.941406 66.875 34.023438 66.78125 C 34.050781 66.757812 33.835938 66.234375 33.546875 65.613281 C 32.789062 64 32.085938 61.84375 31.820312 60.277344 C 31.691406 59.527344 31.523438 57.792969 31.453125 56.414062 C 31.382812 55.046875 31.308594 53.90625 31.285156 53.894531 C 31.273438 53.867188 31.191406 54 31.105469 54.179688 Z M 31.105469 54.179688 "/>
<path style=" stroke:none;fill-rule:nonzero;fill:rgb(0%,0%,0%);fill-opacity:1;" d="M 53.253906 57.171875 C 51.648438 57.695312 50.027344 59.3125 49.40625 61 C 48.882812 62.390625 48.714844 64.28125 48.953125 65.945312 C 49.289062 68.195312 50.992188 69.835938 53.015625 69.835938 C 53.828125 69.835938 54.339844 69.5625 54.816406 68.859375 C 55.375 68.027344 55.375 67.835938 54.816406 67.625 C 54.386719 67.457031 54.328125 67.386719 54.328125 67.054688 C 54.328125 66.851562 54.21875 66.484375 54.101562 66.242188 C 53.503906 65.078125 53.335938 63.484375 53.71875 62.738281 C 54.3125 61.585938 55.542969 60.394531 56.148438 60.394531 C 56.398438 60.394531 56.710938 60.847656 56.710938 61.203125 C 56.710938 61.429688 56.664062 61.476562 56.507812 61.394531 C 55.695312 61.050781 54.945312 61.273438 54.625 61.976562 C 54.53125 62.179688 54.289062 62.640625 54.089844 63 C 53.636719 63.820312 53.636719 64.140625 54.136719 65.125 C 54.363281 65.578125 54.589844 66.148438 54.636719 66.410156 C 54.757812 67.0625 54.863281 67.230469 55.28125 67.410156 C 55.78125 67.625 56.460938 67.386719 57.054688 66.816406 L 57.507812 66.375 L 57.578125 64.722656 C 57.625 63.820312 57.699219 62.664062 57.734375 62.167969 C 57.804688 61.335938 57.78125 61.179688 57.425781 60.265625 C 56.710938 58.410156 56.398438 57.828125 55.9375 57.484375 C 55.554688 57.1875 55.386719 57.140625 54.53125 57.101562 C 53.992188 57.089844 53.421875 57.113281 53.253906 57.171875 Z M 56.734375 59.789062 C 57.066406 60.085938 57.140625 60.242188 57.222656 60.941406 C 57.4375 62.582031 57.398438 63.164062 57.054688 63.617188 C 56.828125 63.914062 56.734375 64.210938 56.6875 64.710938 C 56.648438 65.09375 56.578125 65.449219 56.519531 65.507812 C 56.460938 65.566406 56.421875 65.398438 56.460938 65.078125 C 56.472656 64.78125 56.421875 64.378906 56.339844 64.175781 C 56.195312 63.832031 56.210938 63.796875 56.484375 63.59375 C 57.089844 63.140625 57.1875 63.011719 57.1875 62.582031 C 57.1875 62.359375 57.125 62.046875 57.042969 61.90625 C 56.972656 61.761719 56.890625 61.335938 56.875 60.953125 C 56.863281 60.574219 56.769531 60.132812 56.664062 59.980469 C 56.328125 59.480469 55.492188 59.492188 54.851562 60.015625 C 54.71875 60.121094 54.789062 60.039062 55.007812 59.824219 C 55.53125 59.3125 56.171875 59.289062 56.734375 59.789062 Z M 56.734375 59.789062 "/>
<path style=" stroke:none;fill-rule:nonzero;fill:rgb(0%,0%,0%);fill-opacity:1;" d="M 36.121094 57.984375 C 35.765625 58.492188 35.324219 59.445312 35.132812 60.097656 C 35.015625 60.503906 34.96875 61.273438 34.976562 62.535156 C 34.992188 64.175781 35.027344 64.496094 35.3125 65.4375 C 35.8125 67.089844 36.625 68.695312 37.527344 69.789062 C 37.765625 70.070312 37.765625 70.070312 37.503906 69.492188 C 37.027344 68.382812 36.457031 66.566406 36.207031 65.351562 C 35.992188 64.296875 35.96875 63.878906 36.015625 62.058594 C 36.050781 60.917969 36.171875 59.46875 36.265625 58.851562 C 36.359375 58.234375 36.433594 57.710938 36.40625 57.6875 C 36.382812 57.660156 36.253906 57.792969 36.121094 57.984375 Z M 36.121094 57.984375 "/>
<path style=" stroke:none;fill-rule:nonzero;fill:rgb(0%,0%,0%);fill-opacity:1;" d="M 42.519531 68.597656 C 42.664062 68.847656 42.804688 69.429688 42.890625 70.046875 C 43.046875 71.332031 43.378906 72.425781 43.804688 73.078125 C 44.128906 73.578125 44.4375 73.792969 44.25 73.390625 C 44.117188 73.09375 44.046875 71.511719 44.140625 70.867188 L 44.222656 70.320312 L 44.507812 71.023438 C 44.890625 71.960938 45.34375 72.652344 45.785156 72.972656 C 46.238281 73.28125 46.308594 73.234375 46.035156 72.820312 C 45.808594 72.472656 45.738281 71.535156 45.929688 71.34375 C 46.011719 71.261719 46.296875 71.523438 46.796875 72.128906 C 47.203125 72.617188 47.535156 72.996094 47.535156 72.949219 C 47.535156 72.914062 47.382812 72.59375 47.179688 72.25 C 46.988281 71.890625 46.820312 71.5 46.820312 71.367188 C 46.820312 71.082031 47.179688 70.738281 47.464844 70.738281 C 47.570312 70.738281 47.632812 70.679688 47.59375 70.617188 C 47.476562 70.429688 46.632812 70.476562 46.464844 70.679688 C 46.34375 70.820312 46.273438 70.832031 46.15625 70.726562 C 46.058594 70.65625 45.988281 70.523438 45.988281 70.429688 C 45.988281 70.121094 45.761719 70.144531 45.355469 70.5 L 44.9375 70.859375 L 44.6875 70.546875 C 44.546875 70.367188 44.4375 70.132812 44.4375 70.011719 C 44.4375 69.691406 44.257812 69.726562 43.984375 70.109375 L 43.757812 70.417969 L 43.675781 70.09375 C 43.570312 69.65625 43.117188 68.96875 42.652344 68.539062 L 42.269531 68.183594 Z M 42.519531 68.597656 "/>
</g>
</svg>
